<?xml version="1.0" standalone="no"?>
<!DOCTYPE svg PUBLIC "-//W3C//DTD SVG 1.1//EN" "http://www.w3.org/Graphics/SVG/1.1/DTD/svg11.dtd">
<svg width="100%" height="100%" viewBox="0 0 32 31" version="1.1" xmlns="http://www.w3.org/2000/svg" xmlns:xlink="http://www.w3.org/1999/xlink" xml:space="preserve" style="fill-rule:evenodd;clip-rule:evenodd;stroke-linejoin:round;stroke-miterlimit:1.41421;">
    <g id="Layer1">
        <path d="M16.2985,0.0125666C7.3035,0.0125666 0.0105,7.30557 0.0105,16.3026C0.0105,23.4996 4.6775,29.6046 11.1505,31.7596C11.9655,31.9086 12.2625,31.4056 12.2625,30.9736C12.2625,30.5876 12.2485,29.5626 12.2405,28.2036C7.7095,29.1876 6.7535,26.0196 6.7535,26.0196C6.0125,24.1386 4.9445,23.6376 4.9445,23.6376C3.4655,22.6266 5.0565,22.6466 5.0565,22.6466C6.6915,22.7626 7.5515,24.3256 7.5515,24.3256C9.0045,26.8146 11.3645,26.0956 12.2925,25.6796C12.4405,24.6266 12.8605,23.9086 13.3265,23.5016C9.7095,23.0906 5.9065,21.6926 5.9065,15.4506C5.9065,13.6726 6.5415,12.2186 7.5835,11.0796C7.4155,10.6676 6.8565,9.01157 7.7425,6.76857C7.7425,6.76857 9.1105,6.33057 12.2225,8.43857C13.5215,8.07757 14.9155,7.89657 16.3005,7.89057C17.6835,7.89657 19.0775,8.07757 20.3785,8.43857C23.4885,6.33057 24.8535,6.76857 24.8535,6.76857C25.7425,9.01157 25.1835,10.6676 25.0155,11.0796C26.0595,12.2186 26.6905,13.6726 26.6905,15.4506C26.6905,21.7086 22.8815,23.0856 19.2525,23.4886C19.8375,23.9916 20.3585,24.9856 20.3585,26.5056C20.3585,28.6826 20.3385,30.4396 20.3385,30.9736C20.3385,31.4096 20.6315,31.9166 21.4585,31.7576C27.9265,29.5986 32.5895,23.4976 32.5895,16.3026C32.5895,7.30557 25.2955,0.0125666 16.2985,0.0125666" style="fill:rgb(24,23,23);"/>
    </g>
</svg>
